<svg xmlns="http://www.w3.org/2000/svg" xmlns:xlink="http://www.w3.org/1999/xlink" width="1587" zoomAndPan="magnify" viewBox="0 0 1190.25 1683.749949" height="2245" preserveAspectRatio="xMidYMid meet" version="1.0"><defs><clipPath id="8bd58f17e0"><path d="M 0.851562 1.160156 L 476.679688 1.160156 L 476.679688 476.992188 L 0.851562 476.992188 Z M 0.851562 1.160156 " clip-rule="nonzero"/></clipPath><clipPath id="2b41f52471"><path d="M 70 107 L 407 107 L 407 476.992188 L 70 476.992188 Z M 70 107 " clip-rule="nonzero"/></clipPath><clipPath id="0efcb08fe9"><rect x="0" width="477" y="0" height="478"/></clipPath></defs><g transform="matrix(1, 0, 0, 1, 356, 483)"><g clip-path="url(#0efcb08fe9)"><g clip-path="url(#8bd58f17e0)"><path fill="#f1f2f2" d="M 476.679688 239.074219 C 476.679688 370.511719 370.199219 476.992188 238.765625 476.992188 C 107.332031 476.992188 0.851562 370.511719 0.851562 239.074219 C 0.851562 107.640625 107.332031 1.160156 238.765625 1.160156 C 370.199219 1.160156 476.679688 107.640625 476.679688 239.074219 Z M 476.679688 239.074219 " fill-opacity="1" fill-rule="nonzero"/></g><g clip-path="url(#2b41f52471)"><path fill="#808285" d="M 324.261719 193.136719 C 324.261719 240.351562 285.980469 278.632812 238.765625 278.632812 C 191.550781 278.632812 153.269531 240.351562 153.269531 193.136719 C 153.269531 145.921875 191.550781 107.640625 238.765625 107.640625 C 285.980469 107.640625 324.261719 145.921875 324.261719 193.136719 Z M 238.765625 304.15625 C 157.523438 304.15625 89.324219 348.25 70.890625 407.660156 C 113.851562 450.476562 173.261719 476.992188 238.765625 476.992188 C 304.269531 476.992188 363.675781 450.476562 406.636719 407.660156 C 388.207031 348.25 320.007812 304.15625 238.765625 304.15625 Z M 238.765625 304.15625 " fill-opacity="1" fill-rule="nonzero"/></g></g></g></svg>